<?xml version="1.0" standalone="no"?>
<!DOCTYPE svg PUBLIC "-//W3C//DTD SVG 20010904//EN"
 "http://www.w3.org/TR/2001/REC-SVG-20010904/DTD/svg10.dtd">
<svg version="1.0" xmlns="http://www.w3.org/2000/svg"
 width="300.000000pt" height="300.000000pt" viewBox="0 0 300.000000 300.000000"
 preserveAspectRatio="xMidYMid meet">
<metadata>
Created by potrace 1.10, written by Peter Selinger 2001-2011
</metadata>
<g transform="translate(0.000000,300.000000) scale(0.050000,-0.050000)"
fill="#000000" stroke="none">
<path d="M1990 5232 c-374 -94 -665 -400 -747 -788 -47 -219 -31 -2715 19
-2877 132 -435 500 -770 978 -889 178 -45 1248 -39 1420 7 384 104 710 363
873 695 130 264 127 215 127 2057 0 1839 8 1727 -120 1793 -78 41 -2389 42
-2550 2z m2390 -763 l0 -489 -249 0 c-136 0 -310 13 -385 28 -150 31 -473 68
-706 81 l-150 8 -10 97 c-51 470 -655 689 -987 358 -144 -144 -206 -355 -146
-498 l31 -74 -139 0 -139 0 0 136 c0 374 129 634 384 775 l106 59 1180 10
c649 6 1187 7 1195 4 8 -4 15 -226 15 -495z m-1927 -111 c178 -164 130 -275
-139 -318 l-197 -32 -38 54 c-156 218 175 479 374 296z m333 -339 c-9 -8 -50
-19 -92 -25 l-76 -12 45 47 c37 39 52 43 91 25 26 -11 40 -27 32 -35z m-831
-77 c14 -1 25 -15 25 -32 0 -31 -55 -40 -90 -15 -34 25 -30 62 6 55 19 -4 45
-8 59 -8z m1726 -209 c234 -40 331 -47 495 -38 l204 11 0 -949 c0 -1150 -10
-1205 -255 -1479 -259 -287 -436 -338 -1181 -338 -758 1 -880 33 -1156 308
-281 282 -287 313 -288 1500 l0 958 205 -13 c161 -9 250 -4 415 28 499 94
1053 99 1561 12z"/>
<path d="M3557 4770 c-52 -29 -90 -109 -208 -443 -56 -156 79 -261 137 -107
22 57 28 60 138 60 108 0 117 -4 146 -60 36 -70 117 -82 149 -22 31 58 -121
474 -200 547 -67 62 -87 65 -162 25z m120 -247 c31 -105 32 -103 -47 -103 -78
0 -82 11 -41 111 37 89 59 87 88 -8z"/>
<path d="M4035 4778 c-50 -29 -53 -557 -4 -607 103 -102 149 -8 149 304 0 309
-29 371 -145 303z"/>
<path d="M2026 3162 c-223 -161 -179 -463 83 -573 201 -84 431 85 431 316 0
254 -307 407 -514 257z m265 -203 c44 -48 21 -144 -38 -156 -116 -22 -194 78
-122 158 45 50 113 50 160 -2z"/>
<path d="M3498 3175 c-123 -82 -193 -289 -136 -401 117 -229 383 -274 547 -93
250 277 -102 699 -411 494z m245 -208 c45 -41 47 -94 6 -136 -64 -64 -189 -18
-189 69 0 88 114 130 183 67z"/>
<path d="M2553 2103 c-127 -140 97 -331 387 -331 284 0 510 179 409 324 -42
60 -130 57 -241 -8 -108 -64 -247 -60 -344 9 -74 53 -166 56 -211 6z"/>
</g>
</svg>
